<mxfile host="65bd71144e">
    <diagram id="p9Xo1t0a47FILJVNUjI1" name="ページ1">
        <mxGraphModel dx="816" dy="412" grid="1" gridSize="10" guides="1" tooltips="1" connect="1" arrows="1" fold="1" page="1" pageScale="1" pageWidth="827" pageHeight="1169" math="0" shadow="0">
            <root>
                <mxCell id="0"/>
                <mxCell id="1" parent="0"/>
                <mxCell id="2" value="" style="ellipse;whiteSpace=wrap;html=1;" parent="1" vertex="1">
                    <mxGeometry x="317.5" y="50" width="145" height="50" as="geometry"/>
                </mxCell>
                <mxCell id="3" value="ラズパイの電源を入れる" style="text;html=1;strokeColor=none;fillColor=none;align=center;verticalAlign=middle;whiteSpace=wrap;rounded=0;" parent="1" vertex="1">
                    <mxGeometry x="360" y="60" width="60" height="30" as="geometry"/>
                </mxCell>
                <mxCell id="4" value="" style="shape=process;whiteSpace=wrap;html=1;backgroundOutline=1;" parent="1" vertex="1">
                    <mxGeometry x="330" y="150" width="120" height="60" as="geometry"/>
                </mxCell>
                <mxCell id="18" style="edgeStyle=none;html=1;exitX=0.5;exitY=1;exitDx=0;exitDy=0;" parent="1" source="6" edge="1">
                    <mxGeometry relative="1" as="geometry">
                        <mxPoint x="390" y="280" as="targetPoint"/>
                        <Array as="points">
                            <mxPoint x="240" y="280"/>
                        </Array>
                    </mxGeometry>
                </mxCell>
                <mxCell id="6" value="" style="shape=process;whiteSpace=wrap;html=1;backgroundOutline=1;" parent="1" vertex="1">
                    <mxGeometry x="180" y="150" width="120" height="60" as="geometry"/>
                </mxCell>
                <mxCell id="8" value="main.pyを実行" style="text;html=1;strokeColor=none;fillColor=none;align=center;verticalAlign=middle;whiteSpace=wrap;rounded=0;" parent="1" vertex="1">
                    <mxGeometry x="360" y="165" width="60" height="30" as="geometry"/>
                </mxCell>
                <mxCell id="9" value="&lt;h1&gt;main.py&lt;/h1&gt;&lt;p&gt;パラシュートで機体を落下させてからgpsなどのセンサを使いゴールまで機体を動かすプログラム&lt;/p&gt;&lt;p&gt;走行プログラムという名前のファイルの中にある&lt;/p&gt;" style="text;html=1;strokeColor=none;fillColor=none;spacing=5;spacingTop=-20;whiteSpace=wrap;overflow=hidden;rounded=0;" parent="1" vertex="1">
                    <mxGeometry x="490" y="85" width="190" height="150" as="geometry"/>
                </mxCell>
                <mxCell id="10" value="xbee.pyを実行" style="text;html=1;strokeColor=none;fillColor=none;align=center;verticalAlign=middle;whiteSpace=wrap;rounded=0;" parent="1" vertex="1">
                    <mxGeometry x="210" y="165" width="60" height="30" as="geometry"/>
                </mxCell>
                <mxCell id="11" value="" style="endArrow=classic;html=1;" parent="1" edge="1">
                    <mxGeometry width="50" height="50" relative="1" as="geometry">
                        <mxPoint x="390" y="100" as="sourcePoint"/>
                        <mxPoint x="389.5" y="150" as="targetPoint"/>
                    </mxGeometry>
                </mxCell>
                <mxCell id="13" value="" style="ellipse;whiteSpace=wrap;html=1;" parent="1" vertex="1">
                    <mxGeometry x="317.5" y="370" width="145" height="50" as="geometry"/>
                </mxCell>
                <mxCell id="14" value="ラズパイの電源が切れる" style="text;html=1;strokeColor=none;fillColor=none;align=center;verticalAlign=middle;whiteSpace=wrap;rounded=0;" parent="1" vertex="1">
                    <mxGeometry x="360" y="380" width="60" height="30" as="geometry"/>
                </mxCell>
                <mxCell id="15" value="" style="endArrow=classic;html=1;exitX=0.5;exitY=1;exitDx=0;exitDy=0;" parent="1" source="4" edge="1">
                    <mxGeometry width="50" height="50" relative="1" as="geometry">
                        <mxPoint x="390" y="320" as="sourcePoint"/>
                        <mxPoint x="389.5" y="370" as="targetPoint"/>
                    </mxGeometry>
                </mxCell>
                <mxCell id="16" value="&lt;h1&gt;xbee.py&lt;/h1&gt;&lt;p&gt;gps、温湿度気圧、照度などのセンサで得た値をSDカード上にログとして残すとともにXbeeを使いPCに送信する&lt;/p&gt;&lt;p&gt;Xbeeという名前のファイルの中にある&lt;/p&gt;" style="text;html=1;strokeColor=none;fillColor=none;spacing=5;spacingTop=-20;whiteSpace=wrap;overflow=hidden;rounded=0;" parent="1" vertex="1">
                    <mxGeometry x="500" y="250" width="190" height="150" as="geometry"/>
                </mxCell>
                <mxCell id="17" value="" style="endArrow=classic;html=1;entryX=0.5;entryY=0;entryDx=0;entryDy=0;" parent="1" target="6" edge="1">
                    <mxGeometry width="50" height="50" relative="1" as="geometry">
                        <mxPoint x="390" y="120" as="sourcePoint"/>
                        <mxPoint x="440" y="370" as="targetPoint"/>
                        <Array as="points">
                            <mxPoint x="240" y="120"/>
                        </Array>
                    </mxGeometry>
                </mxCell>
                <mxCell id="19" value="main.py&lt;br&gt;ゴールまで機体を移動させる&lt;br&gt;青い四角のセンサについてのログを機体に残す" style="rounded=0;whiteSpace=wrap;html=1;" parent="1" vertex="1">
                    <mxGeometry x="1449" y="147.5" width="261" height="60" as="geometry"/>
                </mxCell>
                <mxCell id="20" value="&lt;font style=&quot;font-size: 20px;&quot;&gt;プログラムの構成図&lt;/font&gt;" style="text;html=1;strokeColor=none;fillColor=none;align=center;verticalAlign=middle;whiteSpace=wrap;rounded=0;" parent="1" vertex="1">
                    <mxGeometry x="1571" y="82.5" width="230" height="30" as="geometry"/>
                </mxCell>
                <mxCell id="21" value="send.py&lt;br&gt;センサの値をXbeeを使いラズパイにログを残しPCに送信する" style="rounded=0;whiteSpace=wrap;html=1;" parent="1" vertex="1">
                    <mxGeometry x="1576" y="722.5" width="184" height="60" as="geometry"/>
                </mxCell>
                <mxCell id="25" style="edgeStyle=none;html=1;exitX=0.5;exitY=0;exitDx=0;exitDy=0;entryX=0.5;entryY=1;entryDx=0;entryDy=0;" parent="1" source="23" target="19" edge="1">
                    <mxGeometry relative="1" as="geometry"/>
                </mxCell>
                <mxCell id="49" style="edgeStyle=none;html=1;entryX=0.5;entryY=0;entryDx=0;entryDy=0;fontSize=12;exitX=0.5;exitY=1;exitDx=0;exitDy=0;startArrow=none;" parent="1" source="91" target="21" edge="1">
                    <mxGeometry relative="1" as="geometry">
                        <mxPoint x="1520" y="417.5" as="sourcePoint"/>
                    </mxGeometry>
                </mxCell>
                <mxCell id="23" value="DistanceAzimuth.py&lt;br&gt;get_gpsdistance()&lt;br&gt;get_gpsazimuth()&lt;br&gt;gpsの緯度経度からゴールまでの直線距離（ｍ）と方位角を求める" style="rounded=0;whiteSpace=wrap;html=1;fillColor=#dae8fc;strokeColor=#6c8ebf;" parent="1" vertex="1">
                    <mxGeometry x="1360" y="360" width="230" height="62.5" as="geometry"/>
                </mxCell>
                <mxCell id="26" style="edgeStyle=none;html=1;entryX=0.5;entryY=1;entryDx=0;entryDy=0;exitX=0.5;exitY=0;exitDx=0;exitDy=0;" parent="1" source="24" target="23" edge="1">
                    <mxGeometry relative="1" as="geometry"/>
                </mxCell>
                <mxCell id="84" style="edgeStyle=none;html=1;exitX=0.5;exitY=0;exitDx=0;exitDy=0;entryX=0.5;entryY=1;entryDx=0;entryDy=0;fontSize=17;fontColor=#ed0c0c;" parent="1" source="24" target="19" edge="1">
                    <mxGeometry relative="1" as="geometry"/>
                </mxCell>
                <mxCell id="98" style="edgeStyle=none;html=1;exitX=0.5;exitY=1;exitDx=0;exitDy=0;entryX=0.5;entryY=0;entryDx=0;entryDy=0;" parent="1" source="24" target="21" edge="1">
                    <mxGeometry relative="1" as="geometry"/>
                </mxCell>
                <mxCell id="24" value="gps.py&lt;br&gt;&lt;span style=&quot;border-color: var(--border-color); background-color: initial;&quot;&gt;gps_latitude()、g&lt;/span&gt;&lt;span style=&quot;border-color: var(--border-color); background-color: initial;&quot;&gt;ps_longitude()、&lt;/span&gt;&lt;span style=&quot;border-color: var(--border-color); background-color: initial;&quot;&gt;gps_altitude()&lt;/span&gt;&lt;br&gt;gpsで緯度経度・海抜の値" style="rounded=0;whiteSpace=wrap;html=1;fillColor=#dae8fc;strokeColor=#6c8ebf;" parent="1" vertex="1">
                    <mxGeometry x="1130" y="492.5" width="264" height="60" as="geometry"/>
                </mxCell>
                <mxCell id="28" value="ゴールまでの直線距離" style="text;html=1;strokeColor=none;fillColor=none;align=center;verticalAlign=middle;whiteSpace=wrap;rounded=0;" parent="1" vertex="1">
                    <mxGeometry x="1470" y="320" width="80" height="30" as="geometry"/>
                </mxCell>
                <mxCell id="29" value="緯度経度" style="text;html=1;align=center;verticalAlign=middle;resizable=0;points=[];autosize=1;strokeColor=none;fillColor=none;" parent="1" vertex="1">
                    <mxGeometry x="1200" y="467.5" width="70" height="30" as="geometry"/>
                </mxCell>
                <mxCell id="30" value="緯度経度・海抜" style="text;html=1;align=center;verticalAlign=middle;resizable=0;points=[];autosize=1;strokeColor=none;fillColor=none;" parent="1" vertex="1">
                    <mxGeometry x="1200" y="552.5" width="110" height="30" as="geometry"/>
                </mxCell>
                <mxCell id="32" style="edgeStyle=none;html=1;exitX=0.5;exitY=0;exitDx=0;exitDy=0;entryX=0.5;entryY=1;entryDx=0;entryDy=0;" parent="1" source="31" target="19" edge="1">
                    <mxGeometry relative="1" as="geometry"/>
                </mxCell>
                <mxCell id="50" style="edgeStyle=none;html=1;exitX=0.5;exitY=1;exitDx=0;exitDy=0;entryX=0.5;entryY=0;entryDx=0;entryDy=0;fontSize=12;" parent="1" source="31" target="21" edge="1">
                    <mxGeometry relative="1" as="geometry"/>
                </mxCell>
                <mxCell id="31" value="Distance.py&lt;br&gt;distance_result()&lt;br&gt;距離センサで求めた距離（cm）" style="rounded=0;whiteSpace=wrap;html=1;fillColor=#dae8fc;strokeColor=#6c8ebf;" parent="1" vertex="1">
                    <mxGeometry x="1610" y="367.5" width="130" height="60" as="geometry"/>
                </mxCell>
                <mxCell id="36" value="ゴールまでの&lt;br&gt;直線距離" style="text;html=1;align=center;verticalAlign=middle;resizable=0;points=[];autosize=1;strokeColor=none;fillColor=none;" parent="1" vertex="1">
                    <mxGeometry x="1480" y="480" width="100" height="40" as="geometry"/>
                </mxCell>
                <mxCell id="38" style="edgeStyle=none;html=1;exitX=0.5;exitY=0;exitDx=0;exitDy=0;entryX=0.5;entryY=1;entryDx=0;entryDy=0;" parent="1" source="37" target="19" edge="1">
                    <mxGeometry relative="1" as="geometry"/>
                </mxCell>
                <mxCell id="52" style="edgeStyle=none;html=1;exitX=0.5;exitY=1;exitDx=0;exitDy=0;entryX=0.5;entryY=0;entryDx=0;entryDy=0;fontSize=12;" parent="1" source="37" target="21" edge="1">
                    <mxGeometry relative="1" as="geometry"/>
                </mxCell>
                <mxCell id="39" value="距離（cm）" style="text;html=1;align=center;verticalAlign=middle;resizable=0;points=[];autosize=1;strokeColor=none;fillColor=none;" parent="1" vertex="1">
                    <mxGeometry x="1640" y="342.5" width="90" height="30" as="geometry"/>
                </mxCell>
                <mxCell id="40" value="加速度・速度・&lt;br&gt;角速度・方位角" style="text;html=1;align=center;verticalAlign=middle;resizable=0;points=[];autosize=1;strokeColor=none;fillColor=none;" parent="1" vertex="1">
                    <mxGeometry x="1780" y="327.5" width="110" height="40" as="geometry"/>
                </mxCell>
                <mxCell id="45" style="edgeStyle=none;html=1;exitX=0.5;exitY=0;exitDx=0;exitDy=0;entryX=0.5;entryY=1;entryDx=0;entryDy=0;fontSize=20;startArrow=none;" parent="1" source="37" target="19" edge="1">
                    <mxGeometry relative="1" as="geometry"/>
                </mxCell>
                <mxCell id="61" style="edgeStyle=none;html=1;exitX=0.5;exitY=0;exitDx=0;exitDy=0;entryX=0.5;entryY=1;entryDx=0;entryDy=0;fontSize=12;" parent="1" source="42" target="59" edge="1">
                    <mxGeometry relative="1" as="geometry"/>
                </mxCell>
                <mxCell id="42" value="ソースファイル名&lt;br&gt;呼び出す関数名&lt;br&gt;取得する値または機能" style="rounded=0;whiteSpace=wrap;html=1;" parent="1" vertex="1">
                    <mxGeometry x="756.25" y="142.5" width="132.5" height="60" as="geometry"/>
                </mxCell>
                <mxCell id="44" value="返却する値" style="text;html=1;align=center;verticalAlign=middle;resizable=0;points=[];autosize=1;strokeColor=none;fillColor=none;" parent="1" vertex="1">
                    <mxGeometry x="825" y="112.5" width="80" height="30" as="geometry"/>
                </mxCell>
                <mxCell id="51" value="距離（cm）" style="text;html=1;align=center;verticalAlign=middle;resizable=0;points=[];autosize=1;strokeColor=none;fillColor=none;" parent="1" vertex="1">
                    <mxGeometry x="1641" y="427.5" width="90" height="30" as="geometry"/>
                </mxCell>
                <mxCell id="53" value="加速度・速度・&lt;br&gt;角速度・地軸値" style="text;html=1;align=center;verticalAlign=middle;resizable=0;points=[];autosize=1;strokeColor=none;fillColor=none;" parent="1" vertex="1">
                    <mxGeometry x="1780" y="427.5" width="110" height="40" as="geometry"/>
                </mxCell>
                <mxCell id="57" style="edgeStyle=none;html=1;exitX=0.5;exitY=0;exitDx=0;exitDy=0;entryX=0.5;entryY=1;entryDx=0;entryDy=0;fontSize=12;" parent="1" source="56" target="19" edge="1">
                    <mxGeometry relative="1" as="geometry"/>
                </mxCell>
                <mxCell id="56" value="Camera.py&lt;br&gt;photograph()&lt;br&gt;カメラで写真を撮りバイナリデータに変換し、カメラログ用ファイルを作り機体にログを残す＆PCにXbeeで送信する" style="rounded=0;whiteSpace=wrap;html=1;fontSize=12;" parent="1" vertex="1">
                    <mxGeometry x="1080" y="357.5" width="270" height="70" as="geometry"/>
                </mxCell>
                <mxCell id="59" value="呼び出す元のソースファイル名&lt;br&gt;取得する値または機能" style="rounded=0;whiteSpace=wrap;html=1;fontSize=12;" parent="1" vertex="1">
                    <mxGeometry x="730" y="37.5" width="185" height="60" as="geometry"/>
                </mxCell>
                <mxCell id="60" value="見方&lt;br&gt;" style="text;html=1;align=center;verticalAlign=middle;resizable=0;points=[];autosize=1;strokeColor=none;fillColor=none;fontSize=12;" parent="1" vertex="1">
                    <mxGeometry x="730" y="7.5" width="50" height="30" as="geometry"/>
                </mxCell>
                <mxCell id="62" value="なし" style="text;html=1;align=center;verticalAlign=middle;resizable=0;points=[];autosize=1;strokeColor=none;fillColor=none;fontSize=12;" parent="1" vertex="1">
                    <mxGeometry x="1210" y="332.5" width="50" height="30" as="geometry"/>
                </mxCell>
                <mxCell id="64" style="edgeStyle=none;html=1;exitX=0.5;exitY=1;exitDx=0;exitDy=0;entryX=0.5;entryY=0;entryDx=0;entryDy=0;fontSize=12;" parent="1" source="63" target="21" edge="1">
                    <mxGeometry relative="1" as="geometry"/>
                </mxCell>
                <mxCell id="63" value="Temperature.py&lt;br&gt;Temperature_result()&lt;br&gt;温度・湿度・気圧" style="rounded=0;whiteSpace=wrap;html=1;fontSize=12;" parent="1" vertex="1">
                    <mxGeometry x="2130" y="370" width="120" height="60" as="geometry"/>
                </mxCell>
                <mxCell id="65" value="温度・湿度・気圧" style="text;html=1;align=center;verticalAlign=middle;resizable=0;points=[];autosize=1;strokeColor=none;fillColor=none;fontSize=12;" parent="1" vertex="1">
                    <mxGeometry x="2116" y="427.5" width="120" height="30" as="geometry"/>
                </mxCell>
                <mxCell id="70" style="edgeStyle=none;html=1;exitX=0.5;exitY=0;exitDx=0;exitDy=0;entryX=0.5;entryY=1;entryDx=0;entryDy=0;fontSize=12;" parent="1" source="69" target="19" edge="1">
                    <mxGeometry relative="1" as="geometry"/>
                </mxCell>
                <mxCell id="69" value="SoilMoisture.py&lt;br&gt;SoilMois_result()&lt;br&gt;土の抵抗値を取得し、その値を返す" style="rounded=0;whiteSpace=wrap;html=1;fontSize=12;" parent="1" vertex="1">
                    <mxGeometry x="760" y="360" width="310" height="60" as="geometry"/>
                </mxCell>
                <mxCell id="71" value="抵抗値" style="text;html=1;align=center;verticalAlign=middle;resizable=0;points=[];autosize=1;strokeColor=none;fillColor=none;fontSize=12;" parent="1" vertex="1">
                    <mxGeometry x="970" y="332.5" width="60" height="30" as="geometry"/>
                </mxCell>
                <mxCell id="74" style="edgeStyle=none;html=1;entryX=0.5;entryY=0;entryDx=0;entryDy=0;fontSize=12;exitX=0.5;exitY=1;exitDx=0;exitDy=0;" parent="1" source="72" target="21" edge="1">
                    <mxGeometry relative="1" as="geometry"/>
                </mxCell>
                <mxCell id="72" value="&lt;span style=&quot;&quot;&gt;SolarPanel.py&lt;br&gt;SolarPanel_result()&lt;br&gt;ソーラーパネルでの電圧値を測定&lt;br&gt;&lt;/span&gt;" style="rounded=0;whiteSpace=wrap;html=1;fontSize=12;" parent="1" vertex="1">
                    <mxGeometry x="2259" y="367.5" width="120" height="60" as="geometry"/>
                </mxCell>
                <mxCell id="75" value="電圧値" style="text;html=1;align=center;verticalAlign=middle;resizable=0;points=[];autosize=1;strokeColor=none;fillColor=none;fontSize=12;" parent="1" vertex="1">
                    <mxGeometry x="2289" y="432.5" width="60" height="30" as="geometry"/>
                </mxCell>
                <mxCell id="78" value="&lt;font style=&quot;font-size: 17px;&quot; color=&quot;#ed0c0c&quot;&gt;未完成（フローチャートも直す）&lt;/font&gt;" style="text;html=1;align=center;verticalAlign=middle;resizable=0;points=[];autosize=1;strokeColor=none;fillColor=none;fontSize=12;" parent="1" vertex="1">
                    <mxGeometry x="775" y="432.5" width="280" height="30" as="geometry"/>
                </mxCell>
                <mxCell id="82" value="&lt;h1 style=&quot;border-color: var(--border-color);&quot;&gt;プログラム実行前にやること&lt;/h1&gt;&lt;div&gt;DistanceMeasurement.pyにゴールの緯度経度を入力&lt;/div&gt;&lt;p&gt;&lt;br&gt;&lt;/p&gt;" style="text;html=1;strokeColor=none;fillColor=none;spacing=5;spacingTop=-20;whiteSpace=wrap;overflow=hidden;rounded=0;fontColor=#fb0404;" parent="1" vertex="1">
                    <mxGeometry x="20" y="75" width="190" height="120" as="geometry"/>
                </mxCell>
                <mxCell id="83" value="&lt;h1 style=&quot;border-color: var(--border-color);&quot;&gt;プログラム実行前にやること&lt;/h1&gt;&lt;div&gt;DistanceMeasurement.pyにゴールの緯度経度を入力&lt;/div&gt;&lt;p&gt;&lt;br&gt;&lt;/p&gt;" style="text;html=1;strokeColor=none;fillColor=none;spacing=5;spacingTop=-20;whiteSpace=wrap;overflow=hidden;rounded=0;fontColor=#fb0404;" parent="1" vertex="1">
                    <mxGeometry x="1850" y="97.5" width="190" height="120" as="geometry"/>
                </mxCell>
                <mxCell id="85" value="緯度経度" style="text;html=1;align=center;verticalAlign=middle;resizable=0;points=[];autosize=1;strokeColor=none;fillColor=none;" parent="1" vertex="1">
                    <mxGeometry x="1320" y="462.5" width="70" height="30" as="geometry"/>
                </mxCell>
                <mxCell id="37" value="NineAxisSensor.py&lt;br&gt;&lt;span style=&quot;border-color: var(--border-color); background-color: initial;&quot;&gt;AccelerationSpeed()、&lt;/span&gt;&lt;span style=&quot;border-color: var(--border-color); background-color: initial;&quot;&gt;AngularVelocity()、&lt;/span&gt;&lt;span style=&quot;border-color: var(--border-color); background-color: initial;&quot;&gt;&lt;br style=&quot;border-color: var(--border-color);&quot;&gt;&lt;/span&gt;&lt;span style=&quot;border-color: var(--border-color); background-color: initial;&quot;&gt;Azimuth()&lt;/span&gt;&lt;br&gt;9軸で求めた加速度・速度・角速度・地軸値" style="rounded=0;whiteSpace=wrap;html=1;fillColor=#dae8fc;strokeColor=#6c8ebf;" parent="1" vertex="1">
                    <mxGeometry x="1780" y="370" width="330" height="60" as="geometry"/>
                </mxCell>
                <mxCell id="97" value="" style="edgeStyle=none;html=1;entryX=0.5;entryY=0;entryDx=0;entryDy=0;fontSize=12;exitX=0.5;exitY=1;exitDx=0;exitDy=0;endArrow=none;" parent="1" source="23" target="91" edge="1">
                    <mxGeometry relative="1" as="geometry">
                        <mxPoint x="1490" y="422.5" as="sourcePoint"/>
                        <mxPoint x="1667.9999999999995" y="722.5" as="targetPoint"/>
                    </mxGeometry>
                </mxCell>
                <mxCell id="91" value="&lt;font style=&quot;font-size: 17px;&quot; color=&quot;#ed0c0c&quot;&gt;動作確認できてない&lt;/font&gt;" style="text;html=1;align=center;verticalAlign=middle;resizable=0;points=[];autosize=1;strokeColor=none;fillColor=none;fontSize=12;" parent="1" vertex="1">
                    <mxGeometry x="1390" y="432.5" width="180" height="30" as="geometry"/>
                </mxCell>
                <mxCell id="99" value="ManualMain.py&lt;br&gt;ゴールまで機体を手動で移動させる&lt;br&gt;青い四角のセンサについてのログを機体に残す" style="rounded=0;whiteSpace=wrap;html=1;" parent="1" vertex="1">
                    <mxGeometry x="1309" y="67.5" width="261" height="60" as="geometry"/>
                </mxCell>
            </root>
        </mxGraphModel>
    </diagram>
</mxfile>